<svg width="300" height="300" viewBox="0 0 300 300" fill="none" xmlns="http://www.w3.org/2000/svg">
<g style="mix-blend-mode:overlay">
<g style="mix-blend-mode:overlay">
<path d="M203.629 134.82C195.34 105.26 164.581 87.9829 135.021 96.2719C105.46 104.561 88.183 135.32 96.4719 164.88C104.761 194.441 135.52 211.718 165.08 203.429C194.641 195.14 211.918 164.381 203.629 134.82ZM111.252 160.786C105.26 139.414 117.744 117.044 139.215 111.052C160.586 105.06 182.957 117.543 188.949 139.015C194.941 160.386 182.457 182.757 160.986 188.749C139.514 194.741 117.244 182.257 111.252 160.786Z" fill="#ED8936"/>
<path d="M225.801 128.629C214.116 86.8845 170.574 62.4171 128.83 74.2014C87.0856 85.8858 62.6183 129.428 74.4026 171.172C86.1869 212.916 129.629 237.384 171.373 225.599C213.018 213.915 237.485 170.373 225.801 128.629ZM77.7982 170.173C66.6131 130.327 89.882 88.7819 129.729 77.5968C169.576 66.4118 211.12 89.6807 222.206 129.528C233.391 169.374 210.122 210.919 170.275 222.104C130.528 233.289 88.9833 210.02 77.7982 170.173Z" fill="#ED8936"/>
<path d="M163.282 299.9C172.47 299.101 181.758 297.403 190.746 294.807L191.045 294.707L187.45 282.024C202.83 277.63 216.811 270.839 229.095 262.15L236.784 273.036C244.374 267.643 251.465 261.551 257.956 254.86L248.369 245.573C259.154 234.387 268.043 221.505 274.534 207.523L286.618 213.116C290.513 204.627 293.708 195.839 296.005 186.851L283.123 183.555C286.917 168.775 288.216 153.196 286.818 137.517L300 136.318C299.201 127.23 297.503 118.043 295.007 109.155L294.907 108.955L282.124 112.55C277.83 97.1705 270.939 83.1891 262.25 70.9055L273.136 63.2157C267.743 55.6258 261.651 48.4355 255.06 42.044L245.772 51.6311C234.587 40.8455 221.704 31.9574 207.723 25.4661L213.316 13.3821C204.927 9.48731 196.039 6.29155 187.051 3.99461L183.755 16.8775C168.975 13.0826 153.396 11.7844 137.716 13.1825L136.518 0C127.33 0.798935 118.242 2.49667 109.254 4.99334H109.055L112.65 17.7763C97.2703 22.0706 83.289 28.9614 71.0053 37.6498L63.3155 26.7644C55.7257 32.0573 48.5354 38.1492 42.044 44.8403L51.6311 54.1278C40.8455 65.3129 31.9574 78.0958 25.4661 92.177L13.3821 86.5845C9.48732 94.9733 6.29156 103.862 3.99462 112.85L16.8775 116.145C13.0826 130.925 11.7844 146.505 13.1825 162.184L8.1375e-06 163.382C0.798943 172.57 2.49668 181.758 4.99335 190.746V190.846L17.6765 187.25C21.9708 202.63 28.7616 216.611 37.5499 228.995L26.6644 236.585C31.9574 244.174 38.0492 251.365 44.7403 257.856L54.028 248.269C65.1132 259.055 77.9961 267.943 91.9774 274.434L86.3848 286.518C94.7736 290.413 103.662 293.609 112.65 295.905L115.945 283.023C130.726 286.818 146.205 288.216 161.984 286.818L163.282 299.9ZM36.9507 181.658C19.474 119.241 55.9255 54.3276 118.342 36.7511C180.759 19.2744 245.672 55.7257 263.249 118.142C280.726 180.559 244.274 245.473 181.858 263.049C119.441 280.526 54.4274 243.975 36.9507 181.658Z" fill="#ED8936"/>
</g>
</g>
</svg>
