<svg width="2653" height="2459" viewBox="0 0 2653 2459" fill="none" xmlns="http://www.w3.org/2000/svg">
<path d="M1253.36 2458.99H35.9976C26.4504 2458.99 17.2943 2455.2 10.5435 2448.45C3.79259 2441.7 0 2432.54 0 2423V35.6824C0.0831242 26.1899 3.91238 17.1146 10.6542 10.4318C17.3961 3.74893 26.5048 -0.000363922 35.9976 2.64941e-08H1253.36C1258.09 2.64942e-08 1262.77 0.931097 1267.13 2.74015C1271.5 4.54919 1275.47 7.20076 1278.81 10.5434C1282.16 13.8861 1284.81 17.8545 1286.62 22.2219C1288.43 26.5893 1289.36 31.2703 1289.36 35.9976V2423C1289.36 2427.72 1288.43 2432.41 1286.62 2436.77C1284.81 2441.14 1282.16 2445.11 1278.81 2448.45C1275.47 2451.79 1271.5 2454.45 1267.13 2456.25C1262.77 2458.06 1258.09 2458.99 1253.36 2458.99ZM35.9976 1.26087C26.8735 1.27753 18.128 4.90942 11.6763 11.3611C5.22463 17.8128 1.59274 26.5583 1.57608 35.6824V2423C1.59274 2432.12 5.22463 2440.87 11.6763 2447.32C18.128 2453.77 26.8735 2457.4 35.9976 2457.42H1253.36C1262.48 2457.4 1271.23 2453.77 1277.68 2447.32C1284.13 2440.87 1287.76 2432.12 1287.78 2423V35.6824C1287.76 26.5583 1284.13 17.8128 1277.68 11.3611C1271.23 4.90942 1262.48 1.27753 1253.36 1.26087H35.9976Z" fill="#EBEBEB"/>
<path d="M2616.98 2458.99H1399.62C1390.07 2458.99 1380.92 2455.2 1374.16 2448.45C1367.41 2441.7 1363.62 2432.54 1363.62 2423V35.6824C1363.7 26.1899 1367.53 17.1146 1374.28 10.4318C1381.02 3.74893 1390.13 -0.000363922 1399.62 2.64941e-08H2616.98C2626.53 2.64942e-08 2635.68 3.79259 2642.43 10.5434C2649.19 17.2943 2652.98 26.4504 2652.98 35.9976V2423C2652.98 2427.72 2652.05 2432.41 2650.24 2436.77C2648.43 2441.14 2645.78 2445.11 2642.43 2448.45C2639.09 2451.79 2635.12 2454.45 2630.76 2456.25C2626.39 2458.06 2621.71 2458.99 2616.98 2458.99ZM1399.62 1.26087C1390.49 1.27753 1381.75 4.90942 1375.3 11.3611C1368.85 17.8128 1365.21 26.5583 1365.2 35.6824V2423C1365.21 2432.12 1368.85 2440.87 1375.3 2447.32C1381.75 2453.77 1390.49 2457.4 1399.62 2457.42H2616.98C2626.1 2457.4 2634.85 2453.77 2641.3 2447.32C2647.75 2440.87 2651.39 2432.12 2651.4 2423V35.6824C2651.39 26.5583 2647.75 17.8128 2641.3 11.3611C2634.85 4.90942 2626.1 1.27753 2616.98 1.26087H1399.62Z" fill="#EBEBEB"/>
<path d="M463.114 713.963L473.327 734.578L496.149 737.919L479.631 753.995L483.54 776.691L463.114 765.973L442.751 776.691L446.66 753.995L430.143 737.919L452.964 734.578L463.114 713.963Z" fill="#EBEBEB"/>
<path d="M2503.5 1686.28L2513.72 1706.95L2536.54 1710.29L2520.02 1726.31L2523.93 1749.07L2503.5 1738.35L2483.14 1749.07L2487.05 1726.31L2470.53 1710.29L2493.35 1706.95L2503.5 1686.28Z" fill="#F5F5F5"/>
<path d="M2099.4 2285.75L2109.61 2306.37L2132.37 2309.71L2115.85 2325.78L2119.76 2348.48L2099.4 2337.76L2079.03 2348.48L2082.88 2325.78L2066.43 2309.71L2089.18 2306.37L2099.4 2285.75Z" fill="#F5F5F5"/>
<path d="M1174.81 347.683L1178.59 355.374L1187.1 356.635C1187.58 356.697 1188.02 356.893 1188.39 357.201C1188.76 357.508 1189.03 357.913 1189.18 358.37C1189.32 358.826 1189.33 359.314 1189.21 359.777C1189.09 360.241 1188.84 360.66 1188.49 360.985L1182.18 366.974L1183.63 375.422C1183.71 375.892 1183.65 376.374 1183.47 376.814C1183.29 377.254 1182.99 377.635 1182.6 377.915C1182.22 378.196 1181.76 378.364 1181.29 378.403C1180.81 378.441 1180.34 378.348 1179.91 378.133L1172.35 374.098L1164.78 378.133C1164.36 378.348 1163.88 378.441 1163.41 378.403C1162.93 378.364 1162.48 378.196 1162.09 377.915C1161.71 377.635 1161.41 377.254 1161.23 376.814C1161.05 376.374 1160.99 375.892 1161.06 375.422L1162.45 366.974L1156.15 360.985C1155.79 360.655 1155.54 360.231 1155.42 359.763C1155.31 359.295 1155.32 358.803 1155.48 358.345C1155.63 357.887 1155.91 357.482 1156.29 357.179C1156.66 356.876 1157.12 356.687 1157.6 356.635L1166.04 355.374L1169.83 347.683C1169.98 347.139 1170.3 346.659 1170.75 346.318C1171.2 345.976 1171.75 345.791 1172.32 345.791C1172.88 345.791 1173.43 345.976 1173.88 346.318C1174.33 346.659 1174.66 347.139 1174.81 347.683Z" fill="#EBEBEB"/>
<path d="M133.588 2187.59L137.371 2195.22L145.819 2196.48C146.298 2196.55 146.75 2196.75 147.122 2197.06C147.493 2197.37 147.771 2197.78 147.922 2198.24C148.073 2198.7 148.092 2199.19 147.976 2199.66C147.861 2200.13 147.616 2200.56 147.269 2200.9L140.964 2206.82L142.414 2215.27C142.489 2215.74 142.432 2216.22 142.25 2216.66C142.068 2217.1 141.769 2217.48 141.384 2217.76C140.999 2218.04 140.545 2218.21 140.07 2218.25C139.596 2218.29 139.12 2218.2 138.695 2217.98L131.13 2214.01L123.565 2217.98C123.14 2218.2 122.664 2218.29 122.189 2218.25C121.715 2218.21 121.26 2218.04 120.876 2217.76C120.491 2217.48 120.191 2217.1 120.009 2216.66C119.827 2216.22 119.771 2215.74 119.845 2215.27L121.295 2206.82L114.991 2200.9C114.645 2200.56 114.399 2200.14 114.28 2199.67C114.162 2199.21 114.175 2198.72 114.319 2198.26C114.463 2197.8 114.732 2197.39 115.096 2197.08C115.459 2196.77 115.903 2196.56 116.378 2196.48L124.825 2195.22L128.671 2187.59C128.84 2187.07 129.168 2186.62 129.61 2186.3C130.052 2185.98 130.584 2185.81 131.13 2185.81C131.676 2185.81 132.208 2185.98 132.65 2186.3C133.091 2186.62 133.42 2187.07 133.588 2187.59Z" fill="#F5F5F5"/>
<path d="M303.616 266.673L307.398 274.364L315.909 275.562C316.384 275.637 316.827 275.844 317.191 276.158C317.555 276.472 317.824 276.881 317.968 277.339C318.112 277.797 318.125 278.287 318.007 278.752C317.888 279.218 317.642 279.641 317.296 279.975L310.992 286.279L312.442 294.664C312.542 295.14 312.503 295.635 312.329 296.089C312.155 296.543 311.853 296.937 311.46 297.224C311.067 297.51 310.599 297.677 310.113 297.704C309.628 297.731 309.144 297.616 308.722 297.375L301.157 293.403L293.592 297.375C293.17 297.616 292.686 297.731 292.201 297.704C291.715 297.677 291.247 297.51 290.854 297.224C290.461 296.937 290.159 296.543 289.985 296.089C289.811 295.635 289.772 295.14 289.872 294.664L291.259 286.279L284.955 279.975C284.608 279.637 284.363 279.209 284.247 278.739C284.132 278.268 284.151 277.775 284.302 277.315C284.453 276.855 284.73 276.447 285.102 276.137C285.474 275.827 285.925 275.628 286.405 275.562L294.853 274.364L298.887 266.673C299.09 266.215 299.421 265.825 299.841 265.552C300.261 265.278 300.751 265.133 301.252 265.133C301.752 265.133 302.243 265.278 302.662 265.552C303.082 265.825 303.413 266.215 303.616 266.673Z" fill="#EBEBEB"/>
<path d="M293.402 1786.14C293.414 1787.8 292.933 1789.42 292.02 1790.81C291.106 1792.2 289.801 1793.28 288.27 1793.93C286.739 1794.57 285.051 1794.75 283.421 1794.43C281.79 1794.11 280.29 1793.32 279.111 1792.15C277.932 1790.98 277.127 1789.49 276.799 1787.86C276.47 1786.23 276.632 1784.54 277.265 1783.01C277.898 1781.47 278.972 1780.16 280.353 1779.23C281.733 1778.31 283.356 1777.81 285.017 1777.81C287.23 1777.81 289.353 1778.69 290.924 1780.25C292.495 1781.81 293.385 1783.92 293.402 1786.14Z" fill="#EBEBEB"/>
<path d="M1488.32 736.91C1488.33 738.571 1487.85 740.198 1486.94 741.585C1486.02 742.972 1484.72 744.057 1483.19 744.701C1481.66 745.345 1479.97 745.52 1478.34 745.204C1476.71 744.888 1475.21 744.094 1474.03 742.924C1472.85 741.754 1472.05 740.26 1471.72 738.632C1471.39 737.004 1471.55 735.315 1472.18 733.779C1472.82 732.243 1473.89 730.93 1475.27 730.006C1476.65 729.082 1478.27 728.588 1479.94 728.588C1481.03 728.58 1482.12 728.789 1483.14 729.203C1484.16 729.618 1485.08 730.229 1485.86 731.003C1486.64 731.777 1487.26 732.697 1487.68 733.711C1488.1 734.724 1488.32 735.812 1488.32 736.91Z" fill="#EBEBEB"/>
<path d="M1053.58 273.607C1053.58 275.266 1053.08 276.887 1052.16 278.266C1051.24 279.645 1049.93 280.719 1048.4 281.354C1046.87 281.988 1045.18 282.155 1043.56 281.831C1041.93 281.507 1040.44 280.709 1039.26 279.536C1038.09 278.364 1037.29 276.87 1036.97 275.243C1036.64 273.617 1036.81 271.931 1037.44 270.399C1038.08 268.867 1039.15 267.557 1040.53 266.636C1041.91 265.714 1043.53 265.223 1045.19 265.223C1047.41 265.239 1049.53 266.128 1051.1 267.697C1052.67 269.266 1053.56 271.389 1053.58 273.607Z" fill="#F5F5F5"/>
<path d="M1066.85 2317.11C1091.76 2311.23 1107.19 2286.27 1101.31 2261.37C1095.43 2236.46 1070.47 2221.03 1045.57 2226.91C1020.66 2232.79 1005.23 2257.75 1011.11 2282.65C1016.99 2307.56 1041.95 2322.99 1066.85 2317.11Z" fill="#F0F0F0"/>
<path d="M1040.27 2244.9C1030.78 2244.88 1021.53 2247.88 1013.86 2253.47C1009.94 2262.46 1008.98 2272.46 1011.11 2282.03C1013.24 2291.6 1018.36 2300.25 1025.73 2306.72C1033.09 2313.19 1042.32 2317.16 1052.08 2318.05C1061.85 2318.94 1071.64 2316.7 1080.05 2311.66C1083.78 2304.78 1085.65 2297.04 1085.48 2289.21C1085.32 2281.39 1083.12 2273.74 1079.11 2267.01C1075.1 2260.29 1069.41 2254.72 1062.61 2250.86C1055.8 2246.99 1048.1 2244.96 1040.27 2244.96V2244.9Z" fill="#E6E6E6"/>
<path d="M681.432 1466.64H297.815V1293.46L681.432 837.402H865.014V1303.29H960.146V1466.64H865.014V1608.36H681.432V1466.64ZM681.432 1303.29V1064.74L478.686 1303.29H681.432Z" fill="#FF8D00"/>
<path d="M1025.77 1226.25C1025.77 1082.13 1051.71 981.266 1103.57 923.644C1155.43 866.023 1234.47 837.233 1340.67 837.275C1391.65 837.275 1433.54 843.58 1466.32 856.188C1496.1 866.919 1523.37 883.632 1546.45 905.299C1565.9 923.871 1582.38 945.326 1595.3 968.909C1608.1 993.533 1617.73 1019.67 1623.99 1046.7C1638.24 1104.46 1645.36 1163.74 1645.17 1223.23C1645.17 1360.74 1621.91 1461.38 1575.38 1525.14C1528.86 1588.9 1448.73 1620.8 1335 1620.84C1271.2 1620.84 1219.65 1610.67 1180.35 1590.32C1140.74 1569.65 1107.38 1538.77 1083.71 1500.87C1065.43 1472.96 1051.2 1434.78 1041.03 1386.32C1030.47 1333.63 1025.36 1279.99 1025.77 1226.25ZM1234.7 1226.76C1234.7 1323.42 1243.21 1389.34 1260.23 1424.52C1277.25 1459.7 1301.99 1477.37 1334.43 1477.54C1344.73 1477.66 1354.95 1475.73 1364.49 1471.86C1374.04 1468 1382.72 1462.28 1390.04 1455.03C1405.75 1440.03 1417.31 1416.33 1424.71 1383.92C1432.11 1351.52 1435.81 1301.08 1435.81 1232.62C1435.81 1132 1427.27 1064.36 1410.21 1029.68C1393.15 995.009 1367.55 977.693 1333.42 977.735C1298.62 977.735 1273.41 995.408 1257.77 1030.75C1242.14 1066.1 1234.45 1131.43 1234.7 1226.76Z" fill="#FF8D00"/>
<path d="M2093.97 1466.64H1710.36V1293.46L2093.97 837.402H2277.56V1303.29H2373V1466.64H2277.56V1608.36H2093.97V1466.64ZM2093.97 1303.29V1064.74L1891.29 1303.29H2093.97Z" fill="#FF8D00"/>
<g opacity="0.3">
<path d="M1017.58 571.297C1017.58 573.631 1016.89 575.913 1015.59 577.853C1014.29 579.793 1012.44 581.304 1010.29 582.195C1008.13 583.085 1005.75 583.315 1003.47 582.855C1001.18 582.395 999.077 581.266 997.431 579.611C995.784 577.956 994.667 575.849 994.219 573.558C993.771 571.267 994.014 568.895 994.916 566.742C995.818 564.589 997.338 562.752 999.285 561.464C1001.23 560.176 1003.52 559.495 1005.85 559.508C1007.4 559.508 1008.93 559.813 1010.35 560.407C1011.78 561 1013.08 561.869 1014.17 562.965C1015.26 564.06 1016.12 565.36 1016.7 566.79C1017.29 568.22 1017.59 569.752 1017.58 571.297Z" fill="#FF8D00"/>
<path d="M210.438 1024.14C215.034 1024.14 218.76 1020.41 218.76 1015.81C218.76 1011.22 215.034 1007.49 210.438 1007.49C205.842 1007.49 202.116 1011.22 202.116 1015.81C202.116 1020.41 205.842 1024.14 210.438 1024.14Z" fill="#FF8D00"/>
<path d="M1585.28 2239.42C1591.86 2239.42 1597.2 2234.08 1597.2 2227.5C1597.2 2220.92 1591.86 2215.59 1585.28 2215.59C1578.7 2215.59 1573.37 2220.92 1573.37 2227.5C1573.37 2234.08 1578.7 2239.42 1585.28 2239.42Z" fill="#FF8D00"/>
<path d="M1871.81 1754.62C1876.41 1754.62 1880.13 1750.89 1880.13 1746.29C1880.13 1741.7 1876.41 1737.97 1871.81 1737.97C1867.22 1737.97 1863.49 1741.7 1863.49 1746.29C1863.49 1750.89 1867.22 1754.62 1871.81 1754.62Z" fill="#FF8D00"/>
<path d="M2424.51 256.081C2424.51 257.727 2424.02 259.336 2423.11 260.705C2422.19 262.073 2420.89 263.14 2419.37 263.77C2417.85 264.4 2416.18 264.564 2414.57 264.243C2412.95 263.922 2411.47 263.13 2410.3 261.966C2409.14 260.802 2408.35 259.319 2408.03 257.705C2407.71 256.091 2407.87 254.417 2408.5 252.897C2409.13 251.376 2410.2 250.077 2411.57 249.162C2412.93 248.248 2414.54 247.76 2416.19 247.76C2418.4 247.76 2420.51 248.637 2422.07 250.197C2423.63 251.758 2424.51 253.874 2424.51 256.081Z" fill="#FF8D00"/>
<path d="M839.481 88.2611C839.481 89.907 838.993 91.5159 838.079 92.8844C837.164 94.2529 835.865 95.3195 834.344 95.9494C832.824 96.5792 831.15 96.744 829.536 96.4229C827.922 96.1018 826.439 95.3093 825.275 94.1454C824.111 92.9816 823.319 91.4989 822.998 89.8846C822.677 88.2704 822.842 86.5972 823.471 85.0766C824.101 83.556 825.168 82.2563 826.536 81.3419C827.905 80.4275 829.514 79.9395 831.16 79.9395C833.361 79.9559 835.469 80.838 837.026 82.3951C838.583 83.9521 839.465 86.0592 839.481 88.2611Z" fill="#FF8D00"/>
<path d="M1501.12 524.897C1505.71 524.897 1509.44 521.172 1509.44 516.576C1509.44 511.98 1505.71 508.254 1501.12 508.254C1496.52 508.254 1492.8 511.98 1492.8 516.576C1492.8 521.172 1496.52 524.897 1501.12 524.897Z" fill="#FF8D00"/>
</g>
<path d="M640.77 524.96C717.056 524.96 778.897 463.118 778.897 386.832C778.897 310.547 717.056 248.705 640.77 248.705C564.484 248.705 502.643 310.547 502.643 386.832C502.643 463.118 564.484 524.96 640.77 524.96Z" fill="#FF8D00"/>
<path opacity="0.7" d="M640.77 524.96C717.056 524.96 778.897 463.118 778.897 386.832C778.897 310.547 717.056 248.705 640.77 248.705C564.484 248.705 502.643 310.547 502.643 386.832C502.643 463.118 564.484 524.96 640.77 524.96Z" fill="white"/>
<path opacity="0.2" d="M593.173 282.624C574.362 282.566 555.738 286.364 538.451 293.782C517.206 317.133 504.596 347.054 502.719 378.567C500.842 410.081 509.812 441.287 528.137 466.994C546.461 492.701 573.034 511.358 603.437 519.863C633.839 528.368 666.236 526.207 695.239 513.74C713.221 493.923 725.063 469.311 729.326 442.894C733.59 416.477 730.091 389.39 719.256 364.922C708.421 340.455 690.715 319.66 668.289 305.061C645.862 290.463 619.68 282.69 592.921 282.687L593.173 282.624Z" fill="#FF8D00"/>
<path opacity="0.2" d="M579.429 319.124C579.429 321.618 578.69 324.056 577.304 326.129C575.919 328.203 573.95 329.819 571.646 330.773C569.342 331.727 566.807 331.977 564.361 331.491C561.915 331.004 559.668 329.803 557.905 328.04C556.142 326.276 554.941 324.03 554.454 321.584C553.968 319.138 554.217 316.603 555.172 314.299C556.126 311.995 557.742 310.026 559.816 308.641C561.889 307.255 564.327 306.516 566.821 306.516C570.165 306.516 573.372 307.844 575.736 310.209C578.101 312.573 579.429 315.78 579.429 319.124Z" fill="#FF8D00"/>
<path opacity="0.2" d="M727.958 306.517C727.958 309.011 727.219 311.448 725.834 313.522C724.448 315.595 722.479 317.211 720.175 318.166C717.871 319.12 715.336 319.37 712.89 318.883C710.444 318.397 708.198 317.196 706.434 315.432C704.671 313.669 703.47 311.422 702.984 308.977C702.497 306.531 702.747 303.996 703.701 301.692C704.655 299.388 706.271 297.419 708.345 296.033C710.418 294.648 712.856 293.908 715.35 293.908C718.694 293.908 721.901 295.237 724.265 297.601C726.63 299.966 727.958 303.173 727.958 306.517Z" fill="#FF8D00"/>
<path opacity="0.2" d="M702.741 396.541C702.741 400.631 701.528 404.629 699.256 408.03C696.984 411.43 693.755 414.08 689.976 415.646C686.198 417.211 682.04 417.62 678.029 416.822C674.018 416.024 670.333 414.055 667.441 411.163C664.549 408.271 662.58 404.587 661.782 400.575C660.984 396.564 661.394 392.407 662.959 388.628C664.524 384.85 667.174 381.62 670.575 379.348C673.975 377.076 677.973 375.863 682.063 375.863C687.547 375.863 692.807 378.042 696.685 381.92C700.562 385.798 702.741 391.057 702.741 396.541Z" fill="#FF8D00"/>
<path opacity="0.2" d="M637.05 455.488C637.05 460.949 635.431 466.288 632.396 470.829C629.362 475.37 625.05 478.909 620.004 480.999C614.959 483.089 609.406 483.636 604.05 482.57C598.694 481.505 593.774 478.875 589.912 475.013C586.05 471.151 583.42 466.231 582.355 460.875C581.289 455.518 581.836 449.966 583.926 444.921C586.016 439.875 589.555 435.563 594.096 432.529C598.637 429.494 603.976 427.875 609.437 427.875C616.76 427.875 623.784 430.784 628.962 435.963C634.141 441.141 637.05 448.164 637.05 455.488Z" fill="#FF8D00"/>
<path d="M2277.81 2052.97C2293.19 1987.81 2252.83 1922.52 2187.66 1907.14C2122.5 1891.76 2057.21 1932.11 2041.83 1997.28C2026.45 2062.44 2066.8 2127.74 2131.97 2143.12C2197.13 2158.5 2262.43 2118.14 2277.81 2052.97Z" fill="#FF8D00"/>
<path opacity="0.3" d="M2277.81 2052.97C2293.19 1987.81 2252.83 1922.52 2187.66 1907.14C2122.5 1891.76 2057.21 1932.11 2041.83 1997.28C2026.45 2062.44 2066.8 2127.74 2131.97 2143.12C2197.13 2158.5 2262.43 2118.14 2277.81 2052.97Z" fill="white"/>
<path opacity="0.4" d="M2236.39 1931.26C2209.51 1923.15 2180.66 1924.62 2154.75 1935.43C2128.84 1946.23 2107.48 1965.69 2094.33 1990.49C2081.18 2015.29 2077.05 2043.89 2082.64 2071.4C2088.23 2098.91 2103.2 2123.63 2124.99 2141.32C2136.3 2144.75 2148.04 2146.5 2159.86 2146.49C2184.88 2146.49 2209.3 2138.73 2229.74 2124.3C2250.19 2109.87 2265.67 2089.46 2274.05 2065.88C2282.44 2042.3 2283.32 2016.7 2276.58 1992.6C2269.83 1968.49 2255.79 1947.07 2236.39 1931.26Z" fill="#FF8D00"/>
<path d="M2044.11 2061.51C1914.68 2122.41 2011.2 2169.37 2193.58 2103.81C2362.48 2043.1 2426.84 1966.57 2275.54 1990.33C2283.67 2022.17 2072.16 2104.57 2044.11 2061.51Z" fill="#FF8D00"/>
<path opacity="0.2" d="M2234.94 837.4C2065.42 951.95 1845.96 1103.25 1785.38 1466.63H1772.46C1831.4 1107.29 2042.85 952.391 2212.43 837.4H2234.94Z" fill="black"/>
<path d="M1358.01 1974.95C1250.84 1974.95 1144.86 1926.6 1093.23 1847.67C1061.39 1798.87 1024.39 1696.68 1134.59 1560.32L1144.36 1568.26C1066.44 1664.71 1052.06 1761.49 1103.82 1840.79C1166.86 1937.25 1315.58 1985.79 1442.55 1951.25C1572.61 1915.88 1651.54 1802.78 1659.17 1640.95C1685.2 1087.37 1979.3 916.835 2194.02 792.325C2327.49 714.971 2423.88 659.115 2402.7 541.161C2399.73 524.833 2393.24 513.548 2382.71 506.613C2355.29 488.52 2301.7 501.066 2239.67 515.503C2117.93 543.872 1951.25 582.706 1851.95 413.814L1862.86 407.51C1957.42 568.459 2112.32 532.335 2236.83 503.335C2301.7 488.268 2357.68 475.218 2389.65 496.211C2403.2 505.1 2411.52 519.159 2414.86 539.081C2437.62 665.671 2332.91 726.445 2200.2 803.357C1987.94 926.417 1697.31 1094.93 1671.59 1641.83C1663.64 1809.52 1581.31 1926.85 1445.64 1963.73C1417.06 1971.34 1387.59 1975.11 1358.01 1974.95Z" fill="#FF8D00"/>
<path opacity="0.2" d="M1358.01 1974.95C1250.84 1974.95 1144.86 1926.6 1093.23 1847.67C1061.39 1798.87 1024.39 1696.68 1134.59 1560.32L1144.36 1568.26C1066.44 1664.71 1052.06 1761.49 1103.82 1840.79C1166.86 1937.25 1315.58 1985.79 1442.55 1951.25C1572.61 1915.88 1651.54 1802.78 1659.17 1640.95C1685.2 1087.37 1979.3 916.835 2194.02 792.325C2327.49 714.971 2423.88 659.115 2402.7 541.161C2399.73 524.833 2393.24 513.548 2382.71 506.613C2355.29 488.52 2301.7 501.066 2239.67 515.503C2117.93 543.872 1951.25 582.706 1851.95 413.814L1862.86 407.51C1957.42 568.459 2112.32 532.335 2236.83 503.335C2301.7 488.268 2357.68 475.218 2389.65 496.211C2403.2 505.1 2411.52 519.159 2414.86 539.081C2437.62 665.671 2332.91 726.445 2200.2 803.357C1987.94 926.417 1697.31 1094.93 1671.59 1641.83C1663.64 1809.52 1581.31 1926.85 1445.64 1963.73C1417.06 1971.34 1387.59 1975.11 1358.01 1974.95Z" fill="white"/>
<path d="M1722.15 264.779C1751.2 264.947 1780.06 269.473 1807.76 278.207C1807.76 278.207 1877.11 396.539 1885.3 423.648C1882.4 450.378 1837.33 494.193 1837.33 494.193L1722.15 264.779Z" fill="#FF8D00"/>
<path opacity="0.3" d="M1722.15 264.779C1751.2 264.947 1780.06 269.473 1807.76 278.207C1807.76 278.207 1877.11 396.539 1885.3 423.648C1882.4 450.378 1837.33 494.193 1837.33 494.193L1722.15 264.779Z" fill="white"/>
<path d="M1927.54 839.291C1900.84 806.637 1876.48 772.128 1854.66 736.026C1849.37 726.906 1844.35 717.617 1839.6 708.161C1836.89 702.802 1834.3 697.444 1831.78 692.022C1828.47 686.746 1825.9 681.04 1824.15 675.063C1816.59 595.188 1843.95 536.369 1817.85 472.254L1713.95 512.854C1713.95 512.854 1722.78 627.088 1742.95 695.679C1755.56 738.107 1783.8 774.797 1811.1 808.778C1819.61 819.369 1827.81 830.275 1836.32 840.93C1844.83 851.584 1853.4 860.221 1861.53 870.245C1873.83 885.438 1877.86 900.001 1868.6 917.905L1867.02 920.742C1864.37 925.407 1876.73 930.703 1884.55 920.742C1897.15 904.477 1895.39 905.486 1906.36 891.616C1913.04 883.232 1920.67 874.09 1927.29 866.399C1930.48 862.617 1932.25 857.84 1932.3 852.89C1932.35 847.941 1930.66 843.131 1927.54 839.291Z" fill="#FF8D00"/>
<path opacity="0.7" d="M1927.54 839.291C1900.84 806.637 1876.48 772.128 1854.66 736.026C1849.37 726.906 1844.35 717.617 1839.6 708.161C1836.89 702.802 1834.3 697.444 1831.78 692.022C1828.47 686.746 1825.9 681.04 1824.15 675.063C1816.59 595.188 1843.95 536.369 1817.85 472.254L1713.95 512.854C1713.95 512.854 1722.78 627.088 1742.95 695.679C1755.56 738.107 1783.8 774.797 1811.1 808.778C1819.61 819.369 1827.81 830.275 1836.32 840.93C1844.83 851.584 1853.4 860.221 1861.53 870.245C1873.83 885.438 1877.86 900.001 1868.6 917.905L1867.02 920.742C1864.37 925.407 1876.73 930.703 1884.55 920.742C1897.15 904.477 1895.39 905.486 1906.36 891.616C1913.04 883.232 1920.67 874.09 1927.29 866.399C1930.48 862.617 1932.25 857.84 1932.3 852.89C1932.35 847.941 1930.66 843.131 1927.54 839.291Z" fill="white"/>
<path opacity="0.3" d="M1902.13 806.445C1885.65 824.118 1867.35 840.008 1847.54 853.854C1850.25 856.88 1852.9 860.158 1855.61 863.058C1875.44 849.659 1893.45 833.744 1909.2 815.713L1902.13 806.445Z" fill="#FF8D00"/>
<path opacity="0.3" d="M1927.54 839.291L1926.79 838.408C1921.93 843.973 1919.11 851.018 1918.78 858.393C1918.37 863.452 1919.19 868.534 1921.17 873.208L1927.16 866.084C1930.29 862.341 1932.04 857.634 1932.11 852.755C1932.18 847.875 1930.57 843.121 1927.54 839.291Z" fill="#FF8D00"/>
<path d="M1697.43 340.432C1686.17 357.297 1672.66 372.547 1657.28 385.76C1648.74 393.113 1639.39 399.46 1629.41 404.673C1624.17 407.361 1618.73 409.658 1613.15 411.545L1608.86 412.932L1607.47 413.31L1604.51 414.13C1602.68 414.563 1600.83 414.858 1598.96 415.012C1593.64 415.419 1588.29 414.929 1583.14 413.562C1576.63 411.717 1570.4 409.025 1564.6 405.556C1559.93 402.827 1555.41 399.86 1551.05 396.667C1543.17 390.804 1535.63 384.489 1528.48 377.754C1514.69 364.688 1502.03 350.473 1490.65 335.263C1488.46 332.3 1487.37 328.664 1487.57 324.984C1487.78 321.304 1489.26 317.81 1491.76 315.105C1494.26 312.4 1497.63 310.654 1501.29 310.168C1504.94 309.681 1508.65 310.485 1511.77 312.441H1512.28C1527.15 321.898 1542.16 331.859 1556.78 340.748C1564.22 345.098 1571.41 349.511 1578.53 352.915C1581.79 354.618 1585.13 356.133 1588.56 357.454C1590.69 358.396 1592.98 358.951 1595.3 359.093C1595.68 359.093 1595.3 358.652 1592.97 358.715C1592.24 358.671 1591.5 358.671 1590.77 358.715L1589.38 359.03L1591.46 357.958C1594.26 356.451 1596.98 354.788 1599.59 352.978C1605.23 349.001 1610.51 344.528 1615.35 339.613C1626.37 328.071 1636.68 315.882 1646.24 303.111C1651.48 297.25 1658.72 293.557 1666.54 292.759C1674.36 291.96 1682.2 294.113 1688.52 298.794C1694.83 303.475 1699.17 310.348 1700.68 318.063C1702.19 325.778 1700.76 333.779 1696.68 340.495L1697.43 340.432Z" fill="#FF8D00"/>
<path opacity="0.7" d="M1697.43 340.432C1686.17 357.297 1672.66 372.547 1657.28 385.76C1648.74 393.113 1639.39 399.46 1629.41 404.673C1624.17 407.361 1618.73 409.658 1613.15 411.545L1608.86 412.932L1607.47 413.31L1604.51 414.13C1602.68 414.563 1600.83 414.858 1598.96 415.012C1593.64 415.419 1588.29 414.929 1583.14 413.562C1576.63 411.717 1570.4 409.025 1564.6 405.556C1559.93 402.827 1555.41 399.86 1551.05 396.667C1543.17 390.804 1535.63 384.489 1528.48 377.754C1514.69 364.688 1502.03 350.473 1490.65 335.263C1488.46 332.3 1487.37 328.664 1487.57 324.984C1487.78 321.304 1489.26 317.81 1491.76 315.105C1494.26 312.4 1497.63 310.654 1501.29 310.168C1504.94 309.681 1508.65 310.485 1511.77 312.441H1512.28C1527.15 321.898 1542.16 331.859 1556.78 340.748C1564.22 345.098 1571.41 349.511 1578.53 352.915C1581.79 354.618 1585.13 356.133 1588.56 357.454C1590.69 358.396 1592.98 358.951 1595.3 359.093C1595.68 359.093 1595.3 358.652 1592.97 358.715C1592.24 358.671 1591.5 358.671 1590.77 358.715L1589.38 359.03L1591.46 357.958C1594.26 356.451 1596.98 354.788 1599.59 352.978C1605.23 349.001 1610.51 344.528 1615.35 339.613C1626.37 328.071 1636.68 315.882 1646.24 303.111C1651.48 297.25 1658.72 293.557 1666.54 292.759C1674.36 291.96 1682.2 294.113 1688.52 298.794C1694.83 303.475 1699.17 310.348 1700.68 318.063C1702.19 325.778 1700.76 333.779 1696.68 340.495L1697.43 340.432Z" fill="white"/>
<path d="M1467.01 298.95L1474.39 311.559C1474.39 311.559 1480 328.076 1491.28 331.102L1521.92 321.204L1520.35 318.62C1516.44 312.693 1516.88 301.157 1518.2 291.574C1519.53 281.991 1514.61 281.676 1510.95 284.072C1508.36 287.053 1506.54 290.625 1505.66 294.474C1504.15 292.392 1502.49 290.432 1500.68 288.611L1491.35 279.281C1489.39 277.367 1486.78 276.265 1484.04 276.195C1481.31 276.125 1478.65 277.092 1476.59 278.902L1469.03 285.648C1467.23 287.308 1466.06 289.529 1465.69 291.946C1465.32 294.363 1465.79 296.833 1467.01 298.95Z" fill="#FF8D00"/>
<path opacity="0.7" d="M1467.01 298.95L1474.39 311.559C1474.39 311.559 1480 328.076 1491.28 331.102L1521.92 321.204L1520.35 318.62C1516.44 312.693 1516.88 301.157 1518.2 291.574C1519.53 281.991 1514.61 281.676 1510.95 284.072C1508.36 287.053 1506.54 290.625 1505.66 294.474C1504.15 292.392 1502.49 290.432 1500.68 288.611L1491.35 279.281C1489.39 277.367 1486.78 276.265 1484.04 276.195C1481.31 276.125 1478.65 277.092 1476.59 278.902L1469.03 285.648C1467.23 287.308 1466.06 289.529 1465.69 291.946C1465.32 294.363 1465.79 296.833 1467.01 298.95Z" fill="white"/>
<path d="M1753.1 253.558C1719.12 262.566 1686.56 276.296 1656.39 294.347C1651.69 297.292 1647.99 301.607 1645.81 306.711C1643.62 311.815 1643.05 317.466 1644.16 322.905C1656.33 382.418 1684.01 462.104 1713.89 512.854L1853.28 455.169C1854.22 430.583 1820.37 351.022 1785.88 274.11C1779.71 260.303 1767.79 250.027 1753.1 253.558Z" fill="#FF8D00"/>
<path opacity="0.8" d="M1753.1 253.558C1719.12 262.566 1686.56 276.296 1656.39 294.347C1651.69 297.292 1647.99 301.607 1645.81 306.711C1643.62 311.815 1643.05 317.466 1644.16 322.905C1656.33 382.418 1684.01 462.104 1713.89 512.854L1853.28 455.169C1854.22 430.583 1820.37 351.022 1785.88 274.11C1779.71 260.303 1767.79 250.027 1753.1 253.558Z" fill="white"/>
<path opacity="0.3" d="M1807.51 322.844L1779.83 313.576C1786.14 329.778 1808.39 350.267 1823.96 362.308C1818.92 349.7 1813.31 336.461 1807.51 322.844Z" fill="#FF8D00"/>
<path d="M1743.96 191.146C1732.42 169.207 1707.52 158.174 1677.64 160.633C1652.42 162.776 1630.11 188.498 1632.75 202.367C1635.4 216.237 1656.58 222.163 1660.62 226.954L1643.16 239.563C1641.09 241.056 1639.34 242.952 1638.02 245.138C1636.71 247.323 1635.85 249.752 1635.49 252.279C1635.14 254.805 1635.3 257.377 1635.97 259.84C1636.64 262.303 1637.79 264.605 1639.37 266.608C1646.75 275.939 1656.46 285.521 1662.07 292.582C1710.36 291.321 1746.1 272.913 1759.03 255.198C1754.17 232.754 1755.18 212.959 1743.96 191.146Z" fill="#FF8D00"/>
<path opacity="0.8" d="M1743.96 191.146C1732.42 169.207 1707.52 158.174 1677.64 160.633C1652.42 162.776 1630.11 188.498 1632.75 202.367C1635.4 216.237 1656.58 222.163 1660.62 226.954L1643.16 239.563C1641.09 241.056 1639.34 242.952 1638.02 245.138C1636.71 247.323 1635.85 249.752 1635.49 252.279C1635.14 254.805 1635.3 257.377 1635.97 259.84C1636.64 262.303 1637.79 264.605 1639.37 266.608C1646.75 275.939 1656.46 285.521 1662.07 292.582C1710.36 291.321 1746.1 272.913 1759.03 255.198C1754.17 232.754 1755.18 212.959 1743.96 191.146Z" fill="white"/>
<path d="M1720.26 204.763C1723.69 213.555 1724.43 223.166 1722.4 232.381C1720.36 241.596 1715.64 250.002 1708.84 256.535C1702.03 263.069 1693.43 267.437 1684.14 269.087C1674.85 270.738 1665.28 269.597 1656.64 265.809C1647.99 262.02 1640.67 255.754 1635.58 247.803C1630.5 239.852 1627.89 230.573 1628.08 221.138C1628.27 211.703 1631.25 202.536 1636.65 194.796C1642.05 187.057 1649.62 181.091 1658.41 177.654C1670.21 173.058 1683.35 173.332 1694.94 178.414C1706.54 183.497 1715.64 192.973 1720.26 204.763Z" fill="#263238"/>
<path d="M2129.59 772.907C2128.9 752.166 2127.95 753.994 2127.39 736.531C2127.01 725.814 2126.95 713.899 2126.88 703.623C2126.86 698.743 2125.16 694.02 2122.06 690.252C2118.95 686.484 2114.65 683.903 2109.86 682.945C2101.54 681.242 2093.15 679.666 2084.64 677.901C2073.74 675.568 2062.96 673.047 2052.3 669.958C2043.98 667.562 2035.79 664.914 2027.65 661.951C2019.52 658.988 2010.38 655.647 2001.93 651.738C1991.97 647.514 1982.14 642.975 1972.43 638.247C1961.52 633.077 1950.74 627.656 1939.96 622.171C1898.48 553.517 1897.6 508.252 1853.09 455.17L1757.51 498.417C1757.51 498.417 1827.74 622.991 1875.53 675.821C1903.08 706.207 1946.26 719.951 1984.78 729.912C2012.59 737.035 2040.77 742.52 2068.95 747.753C2079.92 749.77 2091.83 750.527 2101.29 757.083C2108.28 762.448 2113.08 770.182 2114.78 778.833C2115.2 780.598 2115.58 782.363 2115.91 784.129C2117.11 789.424 2130.04 785.39 2129.59 772.907Z" fill="#FF8D00"/>
<path opacity="0.8" d="M2129.59 772.907C2128.9 752.166 2127.95 753.994 2127.39 736.531C2127.01 725.814 2126.95 713.899 2126.88 703.623C2126.86 698.743 2125.16 694.02 2122.06 690.252C2118.95 686.484 2114.65 683.903 2109.86 682.945C2101.54 681.242 2093.15 679.666 2084.64 677.901C2073.74 675.568 2062.96 673.047 2052.3 669.958C2043.98 667.562 2035.79 664.914 2027.65 661.951C2019.52 658.988 2010.38 655.647 2001.93 651.738C1991.97 647.514 1982.14 642.975 1972.43 638.247C1961.52 633.077 1950.74 627.656 1939.96 622.171C1898.48 553.517 1897.6 508.252 1853.09 455.17L1757.51 498.417C1757.51 498.417 1827.74 622.991 1875.53 675.821C1903.08 706.207 1946.26 719.951 1984.78 729.912C2012.59 737.035 2040.77 742.52 2068.95 747.753C2079.92 749.77 2091.83 750.527 2101.29 757.083C2108.28 762.448 2113.08 770.182 2114.78 778.833C2115.2 780.598 2115.58 782.363 2115.91 784.129C2117.11 789.424 2130.04 785.39 2129.59 772.907Z" fill="white"/>
<path opacity="0.3" d="M2081.11 677.081C2077.33 676.261 2073.55 675.442 2069.7 674.496C2070.02 696.309 2059.81 733.883 2056.09 745.293L2068.06 747.563C2075.91 724.854 2080.31 701.095 2081.11 677.081Z" fill="#FF8D00"/>
<path opacity="0.3" d="M2127.14 703.622C2127.12 698.751 2125.42 694.035 2122.33 690.268C2119.24 686.502 2114.95 683.915 2110.18 682.944L2103.87 681.746C2104.89 688.913 2108.55 695.438 2114.15 700.029C2117.75 703.356 2122.06 705.814 2126.76 707.215C2127.14 706.081 2127.14 704.82 2127.14 703.622Z" fill="#FF8D00"/>
<path d="M1711.37 205.142C1713.89 214.724 1703.17 224.748 1694.66 216.489C1686.72 207.972 1678.02 200.187 1668.69 193.226C1659.92 187.742 1671.59 178.159 1685.39 181.879C1691.28 183.359 1696.73 186.25 1701.25 190.303C1705.78 194.355 1709.25 199.448 1711.37 205.142Z" fill="white"/>
<path d="M1712.06 509.765C1707.65 511.404 1715.72 518.969 1715.72 518.969C1715.72 518.969 1803.98 488.772 1857.56 457.691C1857.69 455.81 1857.37 453.924 1856.63 452.192C1855.88 450.459 1854.73 448.93 1853.28 447.73C1807.41 471.06 1760.27 491.771 1712.06 509.765Z" fill="#FF8D00"/>
<path opacity="0.5" d="M1712.06 509.765C1707.65 511.404 1715.72 518.969 1715.72 518.969C1715.72 518.969 1803.98 488.772 1857.56 457.691C1857.69 455.81 1857.37 453.924 1856.63 452.192C1855.88 450.459 1854.73 448.93 1853.28 447.73C1807.41 471.06 1760.27 491.771 1712.06 509.765Z" fill="white"/>
<path d="M1776.99 249.398C1794.39 258.224 1810.72 267.491 1827.43 277.767C1835.56 282.936 1843.63 288.169 1851.64 293.843C1859.64 299.517 1867.59 305.317 1875.59 311.873L1878.56 314.332L1882.28 317.736C1884.49 319.719 1886.6 321.824 1888.58 324.041C1890.6 326.247 1892.3 328.39 1893.94 330.345C1895.58 332.299 1897.34 334.632 1898.79 336.649C1904.67 344.754 1910.1 353.172 1915.06 361.866C1924.83 378.726 1933.26 396.327 1940.28 414.507C1941.57 417.942 1941.64 421.72 1940.47 425.199C1939.29 428.678 1936.95 431.642 1933.84 433.589C1930.72 435.535 1927.03 436.344 1923.39 435.876C1919.75 435.409 1916.38 433.694 1913.86 431.025L1913.55 430.646C1900.94 417.218 1888.77 403.096 1876.54 389.92C1864.31 376.744 1851.89 363.379 1841.61 357.516C1827.3 348.627 1811.35 339.738 1795.53 331.038L1747.87 304.56C1740.48 300.648 1734.95 293.96 1732.49 285.967C1730.03 277.975 1730.84 269.333 1734.76 261.943C1738.67 254.553 1745.36 249.019 1753.35 246.56C1761.34 244.101 1769.98 244.918 1777.37 248.83L1776.99 249.398Z" fill="#FF8D00"/>
<path opacity="0.8" d="M1776.99 249.398C1794.39 258.224 1810.72 267.491 1827.43 277.767C1835.56 282.936 1843.63 288.169 1851.64 293.843C1859.64 299.517 1867.59 305.317 1875.59 311.873L1878.56 314.332L1882.28 317.736C1884.49 319.719 1886.6 321.824 1888.58 324.041C1890.6 326.247 1892.3 328.39 1893.94 330.345C1895.58 332.299 1897.34 334.632 1898.79 336.649C1904.67 344.754 1910.1 353.172 1915.06 361.866C1924.83 378.726 1933.26 396.327 1940.28 414.507C1941.57 417.942 1941.64 421.72 1940.47 425.199C1939.29 428.678 1936.95 431.642 1933.84 433.589C1930.72 435.535 1927.03 436.344 1923.39 435.876C1919.75 435.409 1916.38 433.694 1913.86 431.025L1913.55 430.646C1900.94 417.218 1888.77 403.096 1876.54 389.92C1864.31 376.744 1851.89 363.379 1841.61 357.516C1827.3 348.627 1811.35 339.738 1795.53 331.038L1747.87 304.56C1740.48 300.648 1734.95 293.96 1732.49 285.967C1730.03 277.975 1730.84 269.333 1734.76 261.943C1738.67 254.553 1745.36 249.019 1753.35 246.56C1761.34 244.101 1769.98 244.918 1777.37 248.83L1776.99 249.398Z" fill="white"/>
<path d="M1955.22 445.965L1949.86 432.537C1949.86 432.537 1946.9 415.389 1936.24 410.598L1904.72 415.578L1905.79 418.352C1908.69 424.656 1906.49 436.193 1903.65 445.397C1900.81 454.602 1905.6 455.8 1909.64 453.971C1911.91 452.963 1914.11 448.865 1916.51 444.515C1917.68 446.706 1919.01 448.813 1920.48 450.819L1928.24 461.473C1929.86 463.681 1932.25 465.194 1934.94 465.709C1937.63 466.223 1940.41 465.701 1942.74 464.247L1951.31 458.763C1953.32 457.389 1954.8 455.374 1955.51 453.049C1956.22 450.723 1956.12 448.225 1955.22 445.965Z" fill="#FF8D00"/>
<path opacity="0.8" d="M1955.22 445.965L1949.86 432.537C1949.86 432.537 1946.9 415.389 1936.24 410.598L1904.72 415.578L1905.79 418.352C1908.69 424.656 1906.49 436.193 1903.65 445.397C1900.81 454.602 1905.6 455.8 1909.64 453.971C1911.91 452.963 1914.11 448.865 1916.51 444.515C1917.68 446.706 1919.01 448.813 1920.48 450.819L1928.24 461.473C1929.86 463.681 1932.25 465.194 1934.94 465.709C1937.63 466.223 1940.41 465.701 1942.74 464.247L1951.31 458.763C1953.32 457.389 1954.8 455.374 1955.51 453.049C1956.22 450.723 1956.12 448.225 1955.22 445.965Z" fill="white"/>
<path opacity="0.3" d="M1750.39 321.896L1742.7 322.527L1695.48 436.509C1698.06 436.694 1700.66 436.482 1703.17 435.878C1703.17 435.878 1764.7 412.931 1783.3 404.357C1770.82 378.572 1750.39 321.896 1750.39 321.896Z" fill="#FF8D00"/>
<path d="M1664.21 351.779C1669.95 381.575 1680.6 410.209 1695.73 436.509C1718.81 428.566 1757.26 413.561 1775.92 404.988C1763.38 378.099 1752.25 350.575 1742.57 322.527C1722.84 323.851 1679.53 340.432 1664.21 351.779Z" fill="white"/>
<path opacity="0.3" d="M1711.05 376.43C1710.13 379.513 1708.32 382.253 1705.84 384.304C1703.36 386.355 1700.32 387.624 1697.12 387.952C1693.92 388.279 1690.7 387.65 1687.85 386.143C1685.01 384.636 1682.68 382.32 1681.15 379.488C1679.62 376.655 1678.97 373.433 1679.28 370.23C1679.58 367.027 1680.83 363.986 1682.86 361.492C1684.9 358.998 1687.62 357.164 1690.7 356.22C1693.78 355.277 1697.06 355.268 1700.15 356.193C1704.27 357.432 1707.74 360.26 1709.79 364.054C1711.83 367.849 1712.29 372.3 1711.05 376.43Z" fill="#FF8D00"/>
<path opacity="0.6" d="M1723.09 354.743C1722.85 355.795 1722.29 356.749 1721.49 357.478C1720.69 358.208 1719.7 358.679 1718.63 358.83C1717.56 358.982 1716.46 358.806 1715.5 358.327C1714.53 357.847 1713.73 357.086 1713.2 356.143C1712.67 355.2 1712.44 354.12 1712.54 353.043C1712.63 351.967 1713.05 350.945 1713.74 350.112C1714.43 349.279 1715.36 348.673 1716.39 348.375C1717.43 348.076 1718.54 348.098 1719.56 348.439C1720.84 348.847 1721.91 349.725 1722.57 350.895C1723.22 352.065 1723.41 353.441 1723.09 354.743Z" fill="#FF8D00"/>
<path opacity="0.6" d="M1737.21 349.258C1737.07 349.989 1736.77 350.682 1736.34 351.291C1735.91 351.9 1735.35 352.412 1734.71 352.795C1734.07 353.178 1733.36 353.423 1732.62 353.514C1731.88 353.605 1731.13 353.54 1730.41 353.324C1729.7 353.108 1729.04 352.746 1728.47 352.259C1727.9 351.773 1727.45 351.174 1727.12 350.5C1726.8 349.826 1726.63 349.093 1726.61 348.347C1726.58 347.602 1726.72 346.86 1727 346.169C1727.2 345.502 1727.53 344.881 1727.98 344.342C1728.42 343.803 1728.96 343.357 1729.58 343.029C1730.19 342.701 1730.87 342.498 1731.56 342.431C1732.25 342.364 1732.95 342.434 1733.62 342.638C1734.97 343.047 1736.1 343.971 1736.78 345.21C1737.45 346.449 1737.61 347.904 1737.21 349.258Z" fill="#FF8D00"/>
<path opacity="0.5" d="M1757.01 398.368L1698.7 421.379L1695.23 409.905L1753.48 386.895L1757.01 398.368Z" fill="#FF8D00"/>
<path opacity="0.2" d="M1435.3 1274.54C1435.17 1311.25 1431.62 1347.87 1424.71 1383.92C1417.27 1416.33 1405.71 1440.03 1390.04 1455.03C1382.73 1462.28 1374.06 1468.01 1364.53 1471.87C1354.99 1475.73 1344.78 1477.66 1334.5 1477.54C1302.09 1477.54 1277.36 1459.87 1260.29 1424.52C1257.3 1418.17 1254.75 1411.62 1252.67 1404.92C1216.63 1435.87 1183.07 1469.59 1152.3 1505.78L1118.83 1545.25C1136.84 1563.51 1157.63 1578.81 1180.42 1590.58C1219.67 1610.88 1271.2 1621.05 1335 1621.09C1346.22 1621.09 1357.06 1620.77 1367.59 1620.14C1406.19 1563.03 1438.13 1501.69 1462.79 1437.32L1556.41 1193.22L1435.3 1274.54Z" fill="black"/>
<path d="M591.344 1607.6L701.669 1717.92L1010.58 1426.85C904.1 1386.19 697.067 1501.62 591.344 1607.6Z" fill="#263238"/>
<path d="M976.096 1992.16C940.855 1956.86 865.771 1881.83 865.771 1881.83L1156.84 1572.92C1197.25 1679.15 1081.82 1886.37 976.096 1992.16Z" fill="#263238"/>
<path d="M1398.36 1296.8L1518.71 1064.73L1286.65 1185.21C1212.11 1223.87 1143.28 1272.66 1082.13 1330.21L686.539 1702.6L880.901 1896.97L1253.3 1501.37C1310.87 1440.21 1359.69 1371.36 1398.36 1296.8Z" fill="#FF8D00"/>
<path opacity="0.6" d="M1398.36 1296.8L1518.71 1064.73L1286.65 1185.21C1212.11 1223.87 1143.28 1272.66 1082.13 1330.21L686.539 1702.6L880.901 1896.97L1253.3 1501.37C1310.87 1440.21 1359.69 1371.36 1398.36 1296.8Z" fill="white"/>
<path d="M1151.23 1513.54C1196.14 1513.54 1232.56 1477.13 1232.56 1432.21C1232.56 1387.3 1196.14 1350.89 1151.23 1350.89C1106.31 1350.89 1069.9 1387.3 1069.9 1432.21C1069.9 1477.13 1106.31 1513.54 1151.23 1513.54Z" fill="white"/>
<path d="M1151.23 1484.47C1180.09 1484.47 1203.49 1461.08 1203.49 1432.21C1203.49 1403.35 1180.09 1379.95 1151.23 1379.95C1122.37 1379.95 1098.97 1403.35 1098.97 1432.21C1098.97 1461.08 1122.37 1484.47 1151.23 1484.47Z" fill="#FF8D00"/>
<path opacity="0.3" d="M946.655 1827.11L756.328 1636.79L912.171 1490.15L1093.29 1671.33L946.655 1827.11Z" fill="#FF8D00"/>
<path d="M634.403 1781.72C491.925 1793.26 444.706 1884.48 428.567 2005.71C420.371 2067.56 416.715 2130.16 364.83 2166.35C361.709 2168.47 359.359 2171.55 358.132 2175.11C356.905 2178.68 356.868 2182.55 358.025 2186.15C359.182 2189.74 361.472 2192.86 364.551 2195.04C367.63 2197.22 371.334 2198.35 375.106 2198.25C566.379 2192.26 655.585 2098.64 666.807 2059.55C663.861 2079.99 658.595 2100.02 651.109 2119.26C649.733 2122.65 649.464 2126.39 650.339 2129.95C651.215 2133.51 653.19 2136.7 655.985 2139.07C658.779 2141.43 662.25 2142.86 665.903 2143.14C669.555 2143.42 673.203 2142.54 676.326 2140.63C729.976 2107.02 797.306 2045.12 801.782 1944.69C762.317 1888.77 634.403 1781.72 634.403 1781.72Z" fill="#FF8D00"/>
<path opacity="0.2" d="M634.403 1781.72C491.925 1793.26 444.706 1884.48 428.567 2005.71C420.371 2067.56 416.715 2130.16 364.83 2166.35C361.709 2168.47 359.359 2171.55 358.132 2175.11C356.905 2178.68 356.868 2182.55 358.025 2186.15C359.182 2189.74 361.472 2192.86 364.551 2195.04C367.63 2197.22 371.334 2198.35 375.106 2198.25C566.379 2192.26 655.585 2098.64 666.807 2059.55C663.861 2079.99 658.595 2100.02 651.109 2119.26C649.733 2122.65 649.464 2126.39 650.339 2129.95C651.215 2133.51 653.19 2136.7 655.985 2139.07C658.779 2141.43 662.25 2142.86 665.903 2143.14C669.555 2143.42 673.203 2142.54 676.326 2140.63C729.976 2107.02 797.306 2045.12 801.782 1944.69C762.317 1888.77 634.403 1781.72 634.403 1781.72Z" fill="white"/>
<path d="M823.91 1987.75L595.694 1759.53L717.241 1733.24L850.199 1866.2L823.91 1987.75Z" fill="#FF8D00"/>
</svg>
